# xmcd
#
# Track frame offsets: 
#        150
#        14498
#        27702
#        45333
#        59475
#        74232
#        86856
#        100696
#        115549
#        125673
#        136230
#        146951
#        155788
#        167481
#        178569
#        191279
#        202159
#        213484
#        225759
#        236143
#        248479
#        259661
#        272469
#        285579
#        301847
#        313658
#        326127
#        335351
#        345814
#
# Disc length: 4769 seconds
#
# Revision: 2
# Processed by: cddbd v1.5.2PL0 Copyright (c) Steve Scherf et al.
# Submitted via: ExactAudioCopyFreeDBPlugin 1.0
#
DISCID=a8129f1d
DTITLE=Rose Maddox - The One Rose - CD2
DYEAR=1993
DGENRE=Country
TTITLE0=That Glory Bound Train
TTITLE1=Drifting Too Far From The Shore
TTITLE2=When I Take My Vacation In Heaven
TTITLE3=How Beautiful Heaven Must Be
TTITLE4=I'll Reap My Harvest In Heaven
TTITLE5=Smoke, Fire And Brimstone
TTITLE6=Will The Circle Be Unbroken
TTITLE7=Kneel At The Cross
TTITLE8=There's A Better Times A Comin'
TTITLE9=I Want To Live Again
TTITLE10=Kissing My Pillow
TTITLE11=Dime A Dozen
TTITLE12=Loose Talk (& BUCK OWENS)
TTITLE13=Mental Cruelty (& BUCK OWENS)
TTITLE14=Conscience I'm Guilty
TTITLE15=Read My Letter Once Again
TTITLE16=Tall Men
TTITLE17=Early In The Morning
TTITLE18=There Ain't No Love
TTITLE19=What Am I Living For
TTITLE20=Stop The World (And Let Me Off)
TTITLE21=Jim Dandy
TTITLE22=North To Alaska
TTITLE23=Lonely Street
TTITLE24=Gotta Travel On
TTITLE25=Just One More Time
TTITLE26=Don't Tell Me Your Troubles
TTITLE27=There Ain't No Love
TTITLE28=Your Kind Of Lovin' Won't Do
EXTD=
EXTT0=
EXTT1=
EXTT2=
EXTT3=
EXTT4=
EXTT5=
EXTT6=
EXTT7=
EXTT8=
EXTT9=
EXTT10=
EXTT11=
EXTT12=
EXTT13=
EXTT14=
EXTT15=
EXTT16=
EXTT17=
EXTT18=
EXTT19=
EXTT20=
EXTT21=
EXTT22=
EXTT23=
EXTT24=
EXTT25=
EXTT26=
EXTT27=
EXTT28=
PLAYORDER=
